<svg width="162" height="53" viewBox="0 0 162 53" fill="none" xmlns="http://www.w3.org/2000/svg">
<path d="M25 1L24.1719 2.63281L22.2969 2.89844L23.6562 4.19141L23.3398 6L24.6758 5.3125L20.0234 15.3945L18.8008 14.7812L17 16.5859V31H14V33.3828L12.9844 33.8906L11 32.9727L9 33.8984L7 32.9727L4.92969 33.9336L2 33.0352V48H48V33.0352L45.0742 33.9336L43 32.9727L41 33.8984L39 32.9727L37.0156 33.8906L36 33.3828V31H33V16.5859L31.1992 14.7812L30.5508 15.1055L29.9766 15.3945L25.3242 5.3125L26.6602 6L26.3438 4.19141L27.7031 2.89844L25.8281 2.63281L25 1ZM25 9.38672L27.6992 15.2305L27 14.8828L25 15.8828L23 14.8828L22.3008 15.2305L25 9.38672ZM23 17.1172L25 18.1172L27 17.1172L29 18.1172L30.8008 17.2188L31 17.4141V31H19V17.4141L19.1992 17.2188L21 18.1172L23 17.1172ZM25 19C22.25 19 20 21.25 20 24C20 26.75 22.25 29 25 29C27.75 29 30 26.75 30 24C30 21.25 27.75 19 25 19ZM25 21C26.668 21 28 22.332 28 24C28 25.668 26.668 27 25 27C23.332 27 22 25.668 22 24C22 22.332 23.332 21 25 21ZM24 22V24.4141L25.293 25.707L26.707 24.293L26 23.5859V22H24ZM16 33H34V46H30V41C30 38.25 27.75 36 25 36C22.25 36 20 38.25 20 41V46H16V33ZM7 35.1758L9 36.1016L11 35.1758L13.0156 36.1094L14 35.6172V46H4V35.7383L5.07031 36.0664L5.42188 35.9062L7 35.1758ZM39 35.1758L41 36.1016L43 35.1758L44.9258 36.0664L45.293 35.957L46 35.7383V46H36V35.6172L36.9844 36.1094L39 35.1758ZM25 38C26.668 38 28 39.332 28 41V46H22V41C22 39.332 23.332 38 25 38Z" fill="white"/>
<path d="M68.1094 30.5455H74.0071L78.0639 40.4318H78.2685L82.3253 30.5455H88.223V48H83.5866V37.9091H83.4503L79.5639 47.8636H76.7685L72.8821 37.8409H72.7457V48H68.1094V30.5455ZM96.8438 48.2386C95.4233 48.2386 94.2074 47.9574 93.196 47.3949C92.1847 46.8267 91.4091 46.0369 90.8693 45.0256C90.3295 44.0085 90.0597 42.8295 90.0597 41.4886C90.0597 40.1477 90.3295 38.9716 90.8693 37.9602C91.4091 36.9432 92.1847 36.1534 93.196 35.5909C94.2074 35.0227 95.4233 34.7386 96.8438 34.7386C98.2642 34.7386 99.4801 35.0227 100.491 35.5909C101.503 36.1534 102.278 36.9432 102.818 37.9602C103.358 38.9716 103.628 40.1477 103.628 41.4886C103.628 42.8295 103.358 44.0085 102.818 45.0256C102.278 46.0369 101.503 46.8267 100.491 47.3949C99.4801 47.9574 98.2642 48.2386 96.8438 48.2386ZM96.8778 44.7614C97.2756 44.7614 97.6193 44.6278 97.9091 44.3608C98.1989 44.0937 98.4233 43.7131 98.5824 43.2188C98.7415 42.7244 98.821 42.1364 98.821 41.4545C98.821 40.767 98.7415 40.179 98.5824 39.6903C98.4233 39.196 98.1989 38.8153 97.9091 38.5483C97.6193 38.2812 97.2756 38.1477 96.8778 38.1477C96.4574 38.1477 96.0966 38.2812 95.7955 38.5483C95.4943 38.8153 95.2642 39.196 95.1051 39.6903C94.946 40.179 94.8665 40.767 94.8665 41.4545C94.8665 42.1364 94.946 42.7244 95.1051 43.2188C95.2642 43.7131 95.4943 44.0937 95.7955 44.3608C96.0966 44.6278 96.4574 44.7614 96.8778 44.7614ZM111.844 48.2386C110.423 48.2386 109.207 47.9574 108.196 47.3949C107.185 46.8267 106.409 46.0369 105.869 45.0256C105.33 44.0085 105.06 42.8295 105.06 41.4886C105.06 40.1477 105.33 38.9716 105.869 37.9602C106.409 36.9432 107.185 36.1534 108.196 35.5909C109.207 35.0227 110.423 34.7386 111.844 34.7386C113.128 34.7386 114.239 34.9716 115.176 35.4375C116.119 35.8977 116.849 36.5511 117.366 37.3977C117.884 38.2386 118.145 39.2273 118.151 40.3636H113.787C113.724 39.6761 113.526 39.1534 113.19 38.7955C112.861 38.4318 112.435 38.25 111.912 38.25C111.503 38.25 111.145 38.3693 110.838 38.608C110.531 38.8409 110.293 39.196 110.122 39.6733C109.952 40.1449 109.866 40.7386 109.866 41.4545C109.866 42.1705 109.952 42.767 110.122 43.2443C110.293 43.7159 110.531 44.071 110.838 44.3097C111.145 44.5426 111.503 44.6591 111.912 44.6591C112.259 44.6591 112.565 44.5795 112.832 44.4205C113.099 44.2557 113.315 44.017 113.48 43.7045C113.651 43.3864 113.753 43 113.787 42.5455H118.151C118.134 43.6989 117.869 44.7045 117.358 45.5625C116.847 46.4148 116.122 47.0739 115.185 47.5398C114.253 48.0057 113.139 48.2386 111.844 48.2386ZM120.092 48V34.9091H124.796V39.5795H125.614L128.41 34.9091H133.796L129.603 41.5227L133.83 48H128.376L125.853 43.9432H124.796V48H120.092ZM134.928 48V34.9091H140.655C142.411 34.9091 143.791 35.2074 144.797 35.804C145.808 36.4006 146.314 37.2955 146.314 38.4886C146.314 39.1364 146.03 39.7102 145.462 40.2102C144.899 40.7102 144.081 41.0455 143.007 41.2159C143.996 41.2614 144.797 41.4432 145.411 41.7614C146.03 42.0739 146.482 42.4659 146.766 42.9375C147.055 43.4034 147.2 43.8864 147.2 44.3864C147.2 45.1818 146.984 45.8494 146.553 46.3892C146.121 46.9233 145.484 47.3267 144.643 47.5994C143.803 47.8665 142.768 48 141.541 48H134.928ZM139.291 44.6932H141.541C141.922 44.6932 142.22 44.6023 142.436 44.4205C142.658 44.2386 142.768 43.9886 142.768 43.6705C142.768 43.3409 142.658 43.0824 142.436 42.8949C142.22 42.7074 141.922 42.6136 141.541 42.6136H139.291V44.6932ZM139.291 40.2273H140.791C141.036 40.2273 141.243 40.1903 141.413 40.1165C141.584 40.0369 141.714 39.9261 141.805 39.7841C141.902 39.642 141.95 39.4716 141.95 39.2727C141.95 38.9716 141.834 38.7386 141.601 38.5739C141.374 38.4034 141.058 38.3182 140.655 38.3182H139.291V40.2273ZM152.661 48.2045C151.826 48.2045 151.087 48.0682 150.445 47.7955C149.809 47.517 149.309 47.0966 148.945 46.5341C148.582 45.9716 148.4 45.2557 148.4 44.3864C148.4 43.6705 148.522 43.0597 148.766 42.554C149.011 42.0426 149.352 41.625 149.789 41.3011C150.227 40.9773 150.735 40.7301 151.315 40.5597C151.9 40.3892 152.531 40.2784 153.207 40.2273C153.94 40.1705 154.528 40.1023 154.971 40.0227C155.42 39.9375 155.744 39.821 155.942 39.6733C156.141 39.5199 156.241 39.3182 156.241 39.0682V39.0341C156.241 38.6932 156.11 38.4318 155.849 38.25C155.587 38.0682 155.252 37.9773 154.843 37.9773C154.394 37.9773 154.028 38.0767 153.744 38.2756C153.465 38.4687 153.298 38.767 153.241 39.1705H148.911C148.968 38.375 149.221 37.642 149.67 36.9716C150.124 36.2955 150.786 35.7557 151.656 35.3523C152.525 34.9432 153.61 34.7386 154.911 34.7386C155.849 34.7386 156.69 34.8494 157.434 35.071C158.178 35.2869 158.812 35.5909 159.335 35.983C159.857 36.3693 160.255 36.8239 160.528 37.3466C160.806 37.8636 160.945 38.4261 160.945 39.0341V48H156.548V46.1591H156.445C156.184 46.6477 155.866 47.0426 155.491 47.3438C155.121 47.6449 154.698 47.8636 154.221 48C153.749 48.1364 153.229 48.2045 152.661 48.2045ZM154.195 45.2386C154.553 45.2386 154.888 45.1648 155.201 45.017C155.519 44.8693 155.778 44.6562 155.977 44.3778C156.175 44.0994 156.275 43.7614 156.275 43.3636V42.2727C156.15 42.3239 156.016 42.3722 155.874 42.4176C155.738 42.4631 155.59 42.5057 155.431 42.5455C155.278 42.5852 155.113 42.6222 154.937 42.6562C154.766 42.6903 154.587 42.7216 154.4 42.75C154.036 42.8068 153.738 42.9006 153.505 43.0312C153.278 43.1562 153.107 43.3125 152.994 43.5C152.886 43.6818 152.832 43.8864 152.832 44.1136C152.832 44.4773 152.96 44.7557 153.215 44.9489C153.471 45.142 153.798 45.2386 154.195 45.2386Z" fill="white"/>
</svg>
