<svg width="128" height="128" viewBox="0 0 128 128" fill="none" xmlns="http://www.w3.org/2000/svg">
<path d="M10.24 15.36V30.72C10.08 31.51 7.67999 43.11 7.67999 49.92C7.67999 53.45 8.36999 56.82 10.24 59.52V122.88H117.76V59.52C119.63 56.82 120.32 53.45 120.32 49.92C120.32 43.18 117.97 31.91 117.76 30.88C117.76 30.83 117.76 30.77 117.76 30.72V15.36H10.24ZM15.36 20.48H112.64V28.16H100.32C99.98 28.09 99.62 28.09 99.28 28.16H82.48C82.22 28.09 81.95 28.06 81.68 28.08C81.6 28.1 81.52 28.13 81.44 28.16H64.56C64.3 28.09 64.03 28.06 63.76 28.08C63.68 28.1 63.6 28.13 63.52 28.16H46.64C46.38 28.09 46.11 28.06 45.84 28.08C45.76 28.1 45.68 28.13 45.6 28.16H28.72C28.46 28.09 28.19 28.06 27.92 28.08C27.84 28.1 27.76 28.13 27.68 28.16H15.36V20.48ZM15.04 33.28H25.6V56C23.96 57.73 21.75 58.88 19.2 58.88C17.22 58.88 15.97 58.38 15.04 57.44C14.88 57.13 14.67 56.86 14.4 56.64C13.38 55.17 12.8 52.75 12.8 49.92C12.8 44.87 14.6 35.63 15.04 33.28ZM30.72 33.28H43.52V56C41.88 57.73 39.67 58.88 37.12 58.88C34.57 58.88 32.36 57.73 30.72 56V33.28ZM48.64 33.28H61.44V56C59.8 57.73 57.59 58.88 55.04 58.88C52.49 58.88 50.28 57.73 48.64 56V33.28ZM66.56 33.28H79.36V56.08C77.73 57.79 75.5 58.88 72.96 58.88C70.41 58.88 68.2 57.73 66.56 56V33.28ZM84.48 33.28H97.28V56.08C95.65 57.79 93.42 58.88 90.88 58.88C88.34 58.88 86.11 57.79 84.48 56.08V33.28ZM102.4 33.28H112.96C113.4 35.63 115.2 44.87 115.2 49.92C115.2 52.44 114.74 54.59 113.92 56.08C113.32 56.43 112.89 57.01 112.72 57.68C111.82 58.47 110.61 58.88 108.8 58.88C106.26 58.88 104.03 57.79 102.4 56.08V33.28ZM81.92 60.24C84.38 62.39 87.35 64 90.88 64C94.41 64 97.38 62.39 99.84 60.24C102.3 62.39 105.27 64 108.8 64C110.16 64 111.47 63.76 112.64 63.36V117.76H104.96V71.68H76.8V117.76H15.36V63.36C16.53 63.76 17.84 64 19.2 64C22.72 64 25.7 62.46 28.16 60.32C30.62 62.46 33.6 64 37.12 64C40.64 64 43.62 62.46 46.08 60.32C48.54 62.46 51.52 64 55.04 64C58.56 64 61.54 62.46 64 60.32C66.46 62.46 69.44 64 72.96 64C76.49 64 79.46 62.39 81.92 60.24ZM23.04 71.68V110.08H69.12V71.68H23.04ZM28.16 76.8H64V104.96H28.16V76.8ZM81.92 76.8H99.84V117.76H81.92V76.8Z" fill="white"/>
</svg>
