<svg width="128" height="128" viewBox="0 0 128 128" fill="none" xmlns="http://www.w3.org/2000/svg">
<path d="M39.495 7.68005C36.0006 7.68005 32.9202 10.067 32.055 13.4551L30.91 17.9201H30.72C28.5019 17.9201 26.4789 18.6708 24.995 19.9401C23.5112 21.2093 22.5674 22.8814 21.93 24.6401C20.6552 28.1573 20.48 32.1993 20.48 35.8401C20.4801 36.519 20.7498 37.1701 21.2299 37.6502C21.71 38.1302 22.3611 38.4 23.04 38.4001H25.905L35.765 115.245C35.7681 115.267 35.7714 115.288 35.775 115.31C36.2509 118.369 38.9233 120.32 41.9 120.32H86.095C89.0731 120.32 91.7449 118.363 92.22 115.31C92.2236 115.288 92.227 115.267 92.23 115.245L102.095 38.4001H104.96C105.639 38.4 106.29 38.1302 106.77 37.6502C107.25 37.1701 107.52 36.519 107.52 35.8401C107.52 32.1993 107.345 28.1573 106.07 24.6401C105.433 22.8814 104.489 21.2093 103.005 19.9401C101.521 18.6708 99.4981 17.9201 97.28 17.9201H97.04L95.935 13.5001C95.935 13.4984 95.935 13.4967 95.935 13.4951C95.082 10.0906 91.992 7.68005 88.48 7.68005H39.495ZM39.495 12.8001H88.48C89.6681 12.8001 90.6763 13.5877 90.965 14.7401L91.76 17.9201H36.195L37.015 14.7251C37.3069 13.5819 38.3148 12.8001 39.495 12.8001ZM33.055 23.0301C33.1298 23.0367 33.2049 23.04 33.28 23.0401H94.72C94.775 23.0402 94.8301 23.0385 94.885 23.0351C94.9366 23.0383 94.9883 23.04 95.04 23.0401H97.28C98.4552 23.0401 99.0876 23.3233 99.68 23.8301C100.272 24.3368 100.826 25.1869 101.26 26.3851C101.893 28.1325 101.965 30.7767 102.09 33.2801H28.585C28.4068 33.2493 28.2257 33.2376 28.045 33.2451C27.9427 33.2506 27.8409 33.2623 27.74 33.2801H25.91C26.0351 30.7767 26.1066 28.1325 26.74 26.3851C27.1743 25.1869 27.7276 24.3368 28.32 23.8301C28.9124 23.3233 29.5448 23.0401 30.72 23.0401H32.895C32.9484 23.0384 33.0018 23.0351 33.055 23.0301ZM31.07 38.4001H96.93L93.975 61.4401H81.88C78.4885 53.9784 71.9245 48.6708 63.98 48.6501C63.8617 48.646 63.7512 48.6523 63.635 48.6601C55.7727 48.7932 49.3519 54.075 46.05 61.4401H34.025L31.07 38.4001ZM63.86 53.7551C63.9138 53.7579 63.8664 53.7601 63.935 53.7601C70.1257 53.7601 75.4544 58.0674 77.955 64.8801C78.1351 65.372 78.4618 65.7968 78.891 66.0972C79.3201 66.3977 79.8311 66.5592 80.355 66.5601H80.615H93.315L91.675 79.3601H80.71H80.355C79.8282 79.3596 79.3142 79.5216 78.8829 79.8241C78.4516 80.1265 78.1241 80.5546 77.945 81.05C77.3823 82.6117 76.7404 84.0419 75.96 85.2401C73.0586 89.6876 68.8249 92.0986 64.225 92.1551H64.055C59.5098 92.1551 55.2763 89.8468 52.305 85.5001C52.305 85.4984 52.305 85.4967 52.305 85.495C51.4352 84.2249 50.7195 82.7049 50.11 81.0401C49.9296 80.5473 49.6022 80.1219 49.172 79.8214C48.7418 79.5209 48.2297 79.3599 47.705 79.3601H47.415H36.325L34.685 66.5601H47.32H47.59C48.1159 66.5595 48.6289 66.3969 49.0592 66.0946C49.4895 65.7922 49.8162 65.3647 49.995 64.8701C52.4228 58.1335 57.6303 53.8287 63.79 53.7601C63.8134 53.7587 63.8367 53.757 63.86 53.7551ZM63.845 58.8801C60.685 58.9145 58.0228 60.8716 56.325 63.4751C54.6272 66.0785 53.7053 69.4272 53.745 73.0701C53.7847 76.7129 54.7808 80.0442 56.535 82.6101C58.2892 85.1759 60.995 87.0745 64.155 87.0401C67.315 87.0056 69.9772 85.0486 71.675 82.4451C73.3728 79.8416 74.2948 76.4929 74.255 72.8501C74.2153 69.2072 73.2192 65.8759 71.465 63.3101C69.7108 60.7442 67.005 58.8456 63.845 58.8801ZM63.9 64.0001C64.9883 63.9883 66.1596 64.6271 67.235 66.2001C68.3104 67.773 69.1054 70.186 69.135 72.9051C69.1647 75.6241 68.4258 78.054 67.385 79.6501C66.3442 81.2461 65.1883 81.9082 64.1 81.9201C63.0117 81.9318 61.8404 81.293 60.765 79.7201C59.6896 78.1471 58.8947 75.7341 58.865 73.0151C58.8353 70.296 59.5742 67.8661 60.615 66.2701C61.6558 64.674 62.8117 64.0119 63.9 64.0001ZM36.98 84.48H46.135C46.7092 85.811 47.2427 87.1617 48.08 88.3851C51.8774 93.9404 57.7356 97.2751 64.055 97.2751H64.235C64.2433 97.2751 64.2517 97.2751 64.26 97.2751C70.66 97.2066 76.5307 93.7336 80.245 88.0401C80.2467 88.0401 80.2483 88.0401 80.25 88.0401C80.9871 86.9088 81.4454 85.686 81.955 84.48H91.02L87.165 114.525C87.1486 114.631 86.5985 115.2 86.095 115.2H41.9C41.4053 115.2 40.8506 114.625 40.835 114.525L36.98 84.48Z" fill="white"/>
</svg>
