<svg width="128" height="128" viewBox="0 0 128 128" fill="none" xmlns="http://www.w3.org/2000/svg">
<path d="M60.8 4.12C47.27 4.12 35.83 8.23 27.81 16.09C19.79 23.95 15.36 35.45 15.36 49.61C15.36 57.4 17.35 65.19 17.62 73.11C17.89 81.02 16.63 88.99 10.22 97.7C9.80999 98.26 9.63999 98.97 9.75999 99.66C9.87999 100.35 10.28 100.96 10.86 101.35C10.86 101.35 13.74 103.24 19.44 105.32C24.98 107.33 33.45 109.58 45 110.85C50.77 117.74 57.33 121.88 64 121.88C70.69 121.88 77.28 117.73 83.07 110.81C94.62 109.53 103.26 107.29 108.95 105.29C114.8 103.24 117.82 101.39 117.82 101.39C118.44 101.01 118.86 100.38 118.99 99.67C119.12 98.95 118.94 98.22 118.49 97.64C111.96 89.25 110.57 82.04 110.68 74.68C110.79 67.32 112.64 59.83 112.64 51.65C112.64 43.41 110.95 34.4 106.37 27.2C101.94 20.25 94.48 15.24 84.11 14.9C81.01 11.76 72.95 4.12 60.8 4.12ZM60.8 9.24C71.22 9.24 78.71 16.52 81.23 19.12C81.71 19.61 82.37 19.89 83.07 19.89C92.47 19.89 98.22 23.93 102.05 29.96C105.88 35.98 107.52 44.13 107.52 51.65C107.52 59.02 105.69 66.48 105.56 74.6C105.45 81.92 107.12 89.82 112.7 98.09C111.64 98.66 111.05 99.13 107.25 100.46C102.7 102.06 95.97 103.85 87.19 105.12C91.15 98.64 97.28 86.27 97.28 71.4C97.28 50.41 84.54 38.93 82.6 37.3C82.09 36.71 81.34 36.38 80.56 36.4C80.3 36.42 80.04 36.47 79.8 36.56C79.79 36.56 79.78 36.56 79.77 36.56C79.7 36.59 79.63 36.61 79.56 36.64C79.56 36.65 79.55 36.65 79.54 36.65C79.47 36.69 79.4 36.73 79.34 36.76C78.69 37.14 78.24 37.78 78.1 38.51C77.92 39.14 74.67 49.86 60.68 54.2C56.07 55.62 48.83 56.62 42.51 59.7C36.19 62.78 30.72 68.61 30.72 78.36C30.72 90.25 35.87 99.57 39.88 105.05C31.61 103.79 25.43 102.04 21.18 100.5C17.47 99.15 16.9 98.66 15.93 98.11C21.51 89.34 23 80.77 22.74 72.93C22.44 64.31 20.48 56.48 20.48 49.61C20.48 36.5 24.48 26.53 31.4 19.74C38.31 12.96 48.3 9.24 60.8 9.24ZM81.49 43.31C85.26 47.26 92.16 56.48 92.16 71.4C92.16 91.17 79.88 106.85 79.88 106.85C79.82 106.92 79.77 107 79.72 107.07C74.42 113.67 68.8 116.76 64 116.76C59.24 116.76 53.65 113.7 48.38 107.17C48.28 107.04 48.18 106.91 48.05 106.8C47.98 106.71 47.9 106.62 47.81 106.55C47.27 106.03 35.84 94.96 35.84 78.36C35.84 70.36 39.48 66.87 44.76 64.3C50.03 61.73 56.88 60.74 62.2 59.08C73.59 55.55 79.1 47.86 81.49 43.31ZM45.99 68.11C44.81 68.13 43.8 68.97 43.55 70.12C43.3 71.28 43.87 72.46 44.93 72.97L50.6 75.8L44.93 78.63C43.67 79.26 43.16 80.8 43.79 82.07C44.42 83.33 45.96 83.84 47.23 83.21L57.47 78.09C58.33 77.66 58.88 76.77 58.88 75.8C58.88 74.83 58.33 73.94 57.47 73.51L47.23 68.39C46.84 68.19 46.42 68.09 45.99 68.11ZM81.93 68.11C81.53 68.11 81.13 68.21 80.77 68.39L70.53 73.51C69.67 73.94 69.12 74.83 69.12 75.8C69.12 76.77 69.67 77.66 70.53 78.09L80.77 83.21C82.04 83.84 83.58 83.33 84.21 82.07C84.84 80.8 84.33 79.26 83.07 78.63L77.4 75.8L83.07 72.97C84.14 72.45 84.72 71.25 84.44 70.08C84.17 68.92 83.13 68.1 81.93 68.11ZM64 88.6C59.8 88.6 56.46 90.89 54.37 93.6C52.29 96.32 51.2 99.43 51.2 102.23C51.2 102.93 51.24 103.61 51.56 104.37C51.89 105.14 52.69 106 53.56 106.31C55.31 106.94 56.27 106.34 57.24 106.01C59.16 105.36 61.27 104.46 64 104.46C66.73 104.46 68.84 105.36 70.76 106.01C71.73 106.34 72.69 106.94 74.44 106.31C75.31 106 76.11 105.14 76.44 104.37C76.76 103.61 76.8 102.93 76.8 102.23C76.8 99.43 75.71 96.32 73.63 93.6C71.54 90.89 68.2 88.6 64 88.6ZM64 93.72C66.39 93.72 68.18 94.93 69.56 96.73C70.61 98.09 70.89 99.58 71.16 100.89C69.48 100.29 67.29 99.33 64 99.33C60.71 99.33 58.52 100.29 56.84 100.89C57.11 99.59 57.39 98.09 58.44 96.73C59.82 94.93 61.61 93.72 64 93.72Z" fill="white"/>
</svg>
