<svg width="128" height="128" viewBox="0 0 128 128" fill="none" xmlns="http://www.w3.org/2000/svg">
<g clip-path="url(#clip0_4_163)">
<path d="M65 -2C63.3 -2 62 -0.7 62 1V18H50C48.3 18 47 19.3 47 21V33H35C33.3 33 32 34.3 32 36V121C32 122.7 33.3 124 35 124C36.7 124 38 122.7 38 121V39H50C51.7 39 53 37.7 53 36V24H77V36C77 37.7 78.3 39 80 39H92V121C92 122.7 93.3 124 95 124C96.7 124 98 122.7 98 121V36C98 34.3 96.7 33 95 33H83V21C83 19.3 81.7 18 80 18H68V1C68 -0.7 66.7 -2 65 -2ZM50 53C48.3 53 47 54.3 47 56V121C47 122.7 48.3 124 50 124C51.7 124 53 122.7 53 121V56C53 54.3 51.7 53 50 53ZM65 53C63.3 53 62 54.3 62 56V121C62 122.7 63.3 124 65 124C66.7 124 68 122.7 68 121V56C68 54.3 66.7 53 65 53ZM80 53C78.3 53 77 54.3 77 56V121C77 122.7 78.3 124 80 124C81.7 124 83 122.7 83 121V56C83 54.3 81.7 53 80 53Z" fill="white"/>
</g>
<defs>
<clipPath id="clip0_4_163">
<rect width="128" height="128" fill="white"/>
</clipPath>
</defs>
</svg>
