<svg width="128" height="128" viewBox="0 0 128 128" fill="none" xmlns="http://www.w3.org/2000/svg">
<path d="M10.75 8L13.15 17.6H14.4V84.8H32V81.6H17.6V17.6C18.4816 17.6 19.2 16.8816 19.2 16C19.2 15.1184 18.4816 14.4 17.6 14.4H15.65L14.85 11.2H71.55L70.75 14.4H68.8C67.9184 14.4 67.2 15.1184 67.2 16C67.2 16.8816 67.9184 17.6 68.8 17.6V19.2H72V17.6H73.25L75.65 8H10.75ZM24 14.4C23.1184 14.4 22.4 15.1184 22.4 16C22.4 16.8816 23.1184 17.6 24 17.6C24.8816 17.6 25.6 16.8816 25.6 16C25.6 15.1184 24.8816 14.4 24 14.4ZM30.4 14.4C29.5184 14.4 28.8 15.1184 28.8 16C28.8 16.8816 29.5184 17.6 30.4 17.6C31.2816 17.6 32 16.8816 32 16C32 15.1184 31.2816 14.4 30.4 14.4ZM36.8 14.4C35.9184 14.4 35.2 15.1184 35.2 16C35.2 16.8816 35.9184 17.6 36.8 17.6C37.6816 17.6 38.4 16.8816 38.4 16C38.4 15.1184 37.6816 14.4 36.8 14.4ZM43.2 14.4C42.3184 14.4 41.6 15.1184 41.6 16C41.6 16.8816 42.3184 17.6 43.2 17.6C44.0816 17.6 44.8 16.8816 44.8 16C44.8 15.1184 44.0816 14.4 43.2 14.4ZM49.6 14.4C48.7184 14.4 48 15.1184 48 16C48 16.8816 48.7184 17.6 49.6 17.6C50.4816 17.6 51.2 16.8816 51.2 16C51.2 15.1184 50.4816 14.4 49.6 14.4ZM56 14.4C55.1184 14.4 54.4 15.1184 54.4 16C54.4 16.8816 55.1184 17.6 56 17.6C56.8816 17.6 57.6 16.8816 57.6 16C57.6 15.1184 56.8816 14.4 56 14.4ZM62.4 14.4C61.5184 14.4 60.8 15.1184 60.8 16C60.8 16.8816 61.5184 17.6 62.4 17.6C63.2816 17.6 64 16.8816 64 16C64 15.1184 63.2816 14.4 62.4 14.4ZM24 24V33.6H30.6031L29.8031 30.4H27.2V27.2H29.0031L28.4937 25.1656L28.2031 24H24ZM33.15 24L35.55 33.6H36.8V120H113.6V33.6H114.85L117.25 24H33.15ZM37.25 27.2H113.15L112.35 30.4H110.4C109.518 30.4 108.8 31.1184 108.8 32C108.8 32.8816 109.518 33.6 110.4 33.6V116.8H40V33.6C40.8816 33.6 41.6 32.8816 41.6 32C41.6 31.1184 40.8816 30.4 40 30.4H38.05L37.25 27.2ZM46.4 30.4C45.5184 30.4 44.8 31.1184 44.8 32C44.8 32.8816 45.5184 33.6 46.4 33.6C47.2816 33.6 48 32.8816 48 32C48 31.1184 47.2816 30.4 46.4 30.4ZM52.8 30.4C51.9184 30.4 51.2 31.1184 51.2 32C51.2 32.8816 51.9184 33.6 52.8 33.6C53.6816 33.6 54.4 32.8816 54.4 32C54.4 31.1184 53.6816 30.4 52.8 30.4ZM59.2 30.4C58.3184 30.4 57.6 31.1184 57.6 32C57.6 32.8816 58.3184 33.6 59.2 33.6C60.0816 33.6 60.8 32.8816 60.8 32C60.8 31.1184 60.0816 30.4 59.2 30.4ZM65.6 30.4C64.7184 30.4 64 31.1184 64 32C64 32.8816 64.7184 33.6 65.6 33.6C66.4816 33.6 67.2 32.8816 67.2 32C67.2 31.1184 66.4816 30.4 65.6 30.4ZM72 30.4C71.1184 30.4 70.4 31.1184 70.4 32C70.4 32.8816 71.1184 33.6 72 33.6C72.8816 33.6 73.6 32.8816 73.6 32C73.6 31.1184 72.8816 30.4 72 30.4ZM78.4 30.4C77.5184 30.4 76.8 31.1184 76.8 32C76.8 32.8816 77.5184 33.6 78.4 33.6C79.2816 33.6 80 32.8816 80 32C80 31.1184 79.2816 30.4 78.4 30.4ZM84.8 30.4C83.9184 30.4 83.2 31.1184 83.2 32C83.2 32.8816 83.9184 33.6 84.8 33.6C85.6816 33.6 86.4 32.8816 86.4 32C86.4 31.1184 85.6816 30.4 84.8 30.4ZM91.2 30.4C90.3184 30.4 89.6 31.1184 89.6 32C89.6 32.8816 90.3184 33.6 91.2 33.6C92.0816 33.6 92.8 32.8816 92.8 32C92.8 31.1184 92.0816 30.4 91.2 30.4ZM97.6 30.4C96.7184 30.4 96 31.1184 96 32C96 32.8816 96.7184 33.6 97.6 33.6C98.4816 33.6 99.2 32.8816 99.2 32C99.2 31.1184 98.4816 30.4 97.6 30.4ZM104 30.4C103.118 30.4 102.4 31.1184 102.4 32C102.4 32.8816 103.118 33.6 104 33.6C104.882 33.6 105.6 32.8816 105.6 32C105.6 31.1184 104.882 30.4 104 30.4ZM24 38.4V48H32V44.8H27.2V41.6H32V38.4H24ZM46.4 40V52.8H62.4V51.2V40H46.4ZM67.2 40V52.8H83.2V51.2V40H67.2ZM88 40V52.8H104V51.2V40H88ZM49.6 43.2H59.2V49.6H49.6V43.2ZM70.4 43.2H80V49.6H70.4V43.2ZM91.2 43.2H100.8V49.6H91.2V43.2ZM24 52.8V62.4H32V59.2H27.2V56H32V52.8H24ZM46.4 59.2V60.8V72H62.4V59.2H46.4ZM67.2 59.2V60.8V72H83.2V59.2H67.2ZM88 59.2V60.8V72H104V59.2H88ZM49.6 62.4H59.2V68.8H49.6V62.4ZM70.4 62.4H80V68.8H70.4V62.4ZM91.2 62.4H100.8V68.8H91.2V62.4ZM24 67.2V76.8H32V73.6H27.2V70.4H32V67.2H24ZM46.4 78.4V80V91.2H62.4V78.4H46.4ZM67.2 78.4V80V91.2H83.2V78.4H67.2ZM88 78.4V80V91.2H104V78.4H88ZM49.6 81.6H59.2V88H49.6V81.6ZM70.4 81.6H80V88H70.4V81.6ZM91.2 81.6H100.8V88H91.2V81.6ZM46.4 97.6V99.2V110.4H62.4V97.6H46.4ZM67.2 97.6V99.2V110.4H83.2V97.6H67.2ZM88 97.6V99.2V110.4H104V97.6H88ZM49.6 100.8H59.2V107.2H49.6V100.8ZM70.4 100.8H80V107.2H70.4V100.8ZM91.2 100.8H100.8V107.2H91.2V100.8Z" fill="white"/>
</svg>
